HIERARCHY
ROOT Root
{
  OFFSET 0.0 0.0 0.0
  CHANNELS 6 Xposition Yposition Zposition Zrotation Yrotation Xrotation
  JOINT Hips
  {
    OFFSET 0.0 100.0 0.0
    CHANNELS 6 Xposition Yposition Zposition Zrotation Yrotation Xrotation
    JOINT Spine1
    {
      OFFSET 5.003913 -0.037094 -0.013727
      CHANNELS 3 Zrotation Yrotation Xrotation
      JOINT Spine2
      {
        OFFSET 7.125363 -1e-06 0.0
        CHANNELS 3 Zrotation Yrotation Xrotation
        JOINT Chest
        {
          OFFSET 7.594027 1e-06 0.0
          CHANNELS 3 Zrotation Yrotation Xrotation
          JOINT Neck1
          {
            OFFSET 26.313086 -0.460272 -0.181672
            CHANNELS 3 Zrotation Yrotation Xrotation
            JOINT Neck2
            {
              OFFSET 8.045911 0.0 0.0
              CHANNELS 3 Zrotation Yrotation Xrotation
              JOINT Head
              {
                OFFSET 6.432774 0.0 0.0
                CHANNELS 3 Zrotation Yrotation Xrotation
                JOINT HeadEnd
                {
                  OFFSET 16.169773 0.06451 0.00362
                  CHANNELS 3 Zrotation Yrotation Xrotation
                }
                JOINT Jaw
                {
                  OFFSET 0.108741 3.12938 0.002639
                  CHANNELS 3 Zrotation Yrotation Xrotation
                }
                JOINT LeftEye
                {
                  OFFSET 4.45173 8.166359 3.206392
                  CHANNELS 3 Zrotation Yrotation Xrotation
                }
                JOINT RightEye
                {
                  OFFSET 4.436895 8.135758 -3.222429
                  CHANNELS 3 Zrotation Yrotation Xrotation
                }
              }
            }
          }
          JOINT LeftShoulder
          {
            OFFSET 23.218927 5.195579 1.621656
            CHANNELS 3 Zrotation Yrotation Xrotation
            JOINT LeftArm
            {
              OFFSET 15.902118 2e-06 -2e-06
              CHANNELS 3 Zrotation Yrotation Xrotation
              JOINT LeftForeArm
              {
                OFFSET 28.739307 0.0 -1e-06
                CHANNELS 3 Zrotation Yrotation Xrotation
                JOINT LeftHand
                {
                  OFFSET 27.093981 -4e-06 0.0
                  CHANNELS 3 Zrotation Yrotation Xrotation
                  JOINT LeftHandThumb1
                  {
                    OFFSET 2.276781 3.380274 0.83384
                    CHANNELS 3 Zrotation Yrotation Xrotation
                    JOINT LeftHandThumb2
                    {
                      OFFSET 4.705309 -1e-06 -1e-06
                      CHANNELS 3 Zrotation Yrotation Xrotation
                      JOINT LeftHandThumb3
                      {
                        OFFSET 2.798515 0.0 3e-06
                        CHANNELS 3 Zrotation Yrotation Xrotation
                        JOINT LeftHandThumbEnd
                        {
                          OFFSET 3.180793 4e-06 -4e-06
                          CHANNELS 3 Zrotation Yrotation Xrotation
                        }
                      }
                    }
                  }
                  JOINT LeftHandIndex1
                  {
                    OFFSET 3.247786 2.352677 0.137192
                    CHANNELS 3 Zrotation Yrotation Xrotation
                    JOINT LeftHandIndex2
                    {
                      OFFSET 6.367095 1e-06 0.0
                      CHANNELS 3 Zrotation Yrotation Xrotation
                      JOINT LeftHandIndex3
                      {
                        OFFSET 3.662364 0.0 0.0
                        CHANNELS 3 Zrotation Yrotation Xrotation
                        JOINT LeftHandIndex4
                        {
                          OFFSET 2.329242 4e-06 -4e-06
                          CHANNELS 3 Zrotation Yrotation Xrotation
                          JOINT LeftHandIndexEnd
                          {
                            OFFSET 2.767823 1e-06 0.0
                            CHANNELS 3 Zrotation Yrotation Xrotation
                          }
                        }
                      }
                    }
                  }
                  JOINT LeftHandMiddle1
                  {
                    OFFSET 3.163612 0.945023 -0.406112
                    CHANNELS 3 Zrotation Yrotation Xrotation
                    JOINT LeftHandMiddle2
                    {
                      OFFSET 6.276789 3e-06 0.0
                      CHANNELS 3 Zrotation Yrotation Xrotation
                      JOINT LeftHandMiddle3
                      {
                        OFFSET 4.35652 -1e-06 4e-06
                        CHANNELS 3 Zrotation Yrotation Xrotation
                        JOINT LeftHandMiddle4
                        {
                          OFFSET 2.996877 0.0 8e-06
                          CHANNELS 3 Zrotation Yrotation Xrotation
                          JOINT LeftHandMiddleEnd
                          {
                            OFFSET 2.323256 3e-06 -4e-06
                            CHANNELS 3 Zrotation Yrotation Xrotation
                          }
                        }
                      }
                    }
                  }
                  JOINT LeftHandRing1
                  {
                    OFFSET 2.882606 -0.309162 0.107445
                    CHANNELS 3 Zrotation Yrotation Xrotation
                    JOINT LeftHandRing2
                    {
                      OFFSET 6.033198 0.0 4e-06
                      CHANNELS 3 Zrotation Yrotation Xrotation
                      JOINT LeftHandRing3
                      {
                        OFFSET 4.350578 3e-06 0.0
                        CHANNELS 3 Zrotation Yrotation Xrotation
                        JOINT LeftHandRing4
                        {
                          OFFSET 2.651321 2e-06 -7e-06
                          CHANNELS 3 Zrotation Yrotation Xrotation
                          JOINT LeftHandRingEnd
                          {
                            OFFSET 1.937663 1e-06 -4e-06
                            CHANNELS 3 Zrotation Yrotation Xrotation
                          }
                        }
                      }
                    }
                  }
                  JOINT LeftHandPinky1
                  {
                    OFFSET 2.865315 -1.525436 0.575687
                    CHANNELS 3 Zrotation Yrotation Xrotation
                    JOINT LeftHandPinky2
                    {
                      OFFSET 5.54936 1e-06 -8e-06
                      CHANNELS 3 Zrotation Yrotation Xrotation
                      JOINT LeftHandPinky3
                      {
                        OFFSET 3.070974 0.0 -4e-06
                        CHANNELS 3 Zrotation Yrotation Xrotation
                        JOINT LeftHandPinky4
                        {
                          OFFSET 1.549672 1e-06 0.0
                          CHANNELS 3 Zrotation Yrotation Xrotation
                          JOINT LeftHandPinkyEnd
                          {
                            OFFSET 1.952123 0.0 0.0
                            CHANNELS 3 Zrotation Yrotation Xrotation
                          }
                        }
                      }
                    }
                  }
                }
              }
            }
          }
          JOINT RightShoulder
          {
            OFFSET 23.161716 5.296122 -1.380114
            CHANNELS 3 Zrotation Yrotation Xrotation
            JOINT RightArm
            {
              OFFSET -16.027195 -2e-06 1.1e-05
              CHANNELS 3 Zrotation Yrotation Xrotation
              JOINT RightForeArm
              {
                OFFSET -28.736639 4e-06 2e-06
                CHANNELS 3 Zrotation Yrotation Xrotation
                JOINT RightHand
                {
                  OFFSET -27.133619 6e-06 0.0
                  CHANNELS 3 Zrotation Yrotation Xrotation
                  JOINT RightHandThumb1
                  {
                    OFFSET -2.274328 -3.351035 -0.83067
                    CHANNELS 3 Zrotation Yrotation Xrotation
                    JOINT RightHandThumb2
                    {
                      OFFSET -4.703594 -3e-06 2e-06
                      CHANNELS 3 Zrotation Yrotation Xrotation
                      JOINT RightHandThumb3
                      {
                        OFFSET -2.794935 -4e-06 -3e-06
                        CHANNELS 3 Zrotation Yrotation Xrotation
                        JOINT RightHandThumbEnd
                        {
                          OFFSET -3.183852 4e-06 1e-06
                          CHANNELS 3 Zrotation Yrotation Xrotation
                        }
                      }
                    }
                  }
                  JOINT RightHandIndex1
                  {
                    OFFSET -3.253496 -2.33755 -0.127667
                    CHANNELS 3 Zrotation Yrotation Xrotation
                    JOINT RightHandIndex2
                    {
                      OFFSET -6.344434 0.0 0.0
                      CHANNELS 3 Zrotation Yrotation Xrotation
                      JOINT RightHandIndex3
                      {
                        OFFSET -3.654871 0.0 -8e-06
                        CHANNELS 3 Zrotation Yrotation Xrotation
                        JOINT RightHandIndex4
                        {
                          OFFSET -2.327586 -1e-06 0.0
                          CHANNELS 3 Zrotation Yrotation Xrotation
                          JOINT RightHandIndexEnd
                          {
                            OFFSET -2.770001 3e-06 8e-06
                            CHANNELS 3 Zrotation Yrotation Xrotation
                          }
                        }
                      }
                    }
                  }
                  JOINT RightHandMiddle1
                  {
                    OFFSET -3.168223 -0.944764 0.411762
                    CHANNELS 3 Zrotation Yrotation Xrotation
                    JOINT RightHandMiddle2
                    {
                      OFFSET -6.266691 -1e-06 -4e-06
                      CHANNELS 3 Zrotation Yrotation Xrotation
                      JOINT RightHandMiddle3
                      {
                        OFFSET -4.348901 0.0 0.0
                        CHANNELS 3 Zrotation Yrotation Xrotation
                        JOINT RightHandMiddle4
                        {
                          OFFSET -3.00024 2e-06 -4e-06
                          CHANNELS 3 Zrotation Yrotation Xrotation
                          JOINT RightHandMiddleEnd
                          {
                            OFFSET -2.321477 -4e-06 -4e-06
                            CHANNELS 3 Zrotation Yrotation Xrotation
                          }
                        }
                      }
                    }
                  }
                  JOINT RightHandRing1
                  {
                    OFFSET -2.885654 0.293261 -0.119232
                    CHANNELS 3 Zrotation Yrotation Xrotation
                    JOINT RightHandRing2
                    {
                      OFFSET -6.032835 -1e-06 -4e-06
                      CHANNELS 3 Zrotation Yrotation Xrotation
                      JOINT RightHandRing3
                      {
                        OFFSET -4.33881 0.0 -4e-06
                        CHANNELS 3 Zrotation Yrotation Xrotation
                        JOINT RightHandRing4
                        {
                          OFFSET -2.654903 -4e-06 -4e-06
                          CHANNELS 3 Zrotation Yrotation Xrotation
                          JOINT RightHandRingEnd
                          {
                            OFFSET -1.935122 0.0 4e-06
                            CHANNELS 3 Zrotation Yrotation Xrotation
                          }
                        }
                      }
                    }
                  }
                  JOINT RightHandPinky1
                  {
                    OFFSET -2.866241 1.503904 -0.60527
                    CHANNELS 3 Zrotation Yrotation Xrotation
                    JOINT RightHandPinky2
                    {
                      OFFSET -5.553177 -2e-06 0.0
                      CHANNELS 3 Zrotation Yrotation Xrotation
                      JOINT RightHandPinky3
                      {
                        OFFSET -3.062664 -1e-06 -4e-06
                        CHANNELS 3 Zrotation Yrotation Xrotation
                        JOINT RightHandPinky4
                        {
                          OFFSET -1.546529 2e-06 4e-06
                          CHANNELS 3 Zrotation Yrotation Xrotation
                          JOINT RightHandPinkyEnd
                          {
                            OFFSET -1.952341 0.0 -4e-06
                            CHANNELS 3 Zrotation Yrotation Xrotation
                          }
                        }
                      }
                    }
                  }
                }
              }
            }
          }
        }
      }
    }
    JOINT LeftLeg
    {
      OFFSET -8.443107 2.567604 10.043214
      CHANNELS 3 Zrotation Yrotation Xrotation
      JOINT LeftShin
      {
        OFFSET 43.229198 1e-06 -1e-06
        CHANNELS 3 Zrotation Yrotation Xrotation
        JOINT LeftFoot
        {
          OFFSET 42.298611 1e-06 1e-06
          CHANNELS 3 Zrotation Yrotation Xrotation
          JOINT LeftToeBase
          {
            OFFSET 14.165858 1e-06 0.0
            CHANNELS 3 Zrotation Yrotation Xrotation
            JOINT LeftToeEnd
            {
              OFFSET 6.7141 -0.234461 0.0
              CHANNELS 3 Zrotation Yrotation Xrotation
            }
          }
        }
      }
    }
    JOINT RightLeg
    {
      OFFSET -8.303923 2.592729 -10.047278
      CHANNELS 3 Zrotation Yrotation Xrotation
      JOINT RightShin
      {
        OFFSET -43.369682 0.0 1e-06
        CHANNELS 3 Zrotation Yrotation Xrotation
        JOINT RightFoot
        {
          OFFSET -42.260784 4e-06 2e-06
          CHANNELS 3 Zrotation Yrotation Xrotation
          JOINT RightToeBase
          {
            OFFSET -14.222245 -2e-06 -1e-06
            CHANNELS 3 Zrotation Yrotation Xrotation
            JOINT RightToeEnd
            {
              OFFSET -6.660062 0.232574 -2e-06
              CHANNELS 3 Zrotation Yrotation Xrotation
            }
          }
        }
      }
    }
  }
}
MOTION
Frames: 4
Frame Time: 0.03333333333333333
0.0 0.0 0.0 0.0 -0.0 0.0 0.322371 90.389397 1.422799 93.800339 -22.591967 85.582901 17.293663 -0.632658 -0.507634 -0.927213 -0.938663 -0.254823 30.273609 -0.730469 -3.657345 -0.681285 6.016354 2.362411 -2.800029 0.410431 1.495879 -47.753342 7.538051 -5.394273 6e-06 -0.0 1e-06 -0.028859 0.000837 0.003123 -0.018661 0.004098 0.035152 -0.028724 -6.9e-05 -0.02748 -68.292542 -84.470932 78.612869 46.620872 -63.396683 -72.685501 117.361008 0.152024 0.227297 22.807049 36.777668 59.067974 17.636635 -26.322731 52.411201 -19.466669 -14.395598 29.410398 -1e-06 -8.774822 -2e-06 16.945343 -18.044579 5.708677 -0.609776 -1.795653 -3.889329 -4.80709 -11.046812 -2.937852 4e-06 -20.976021 -2e-06 -5.019971 -25.033562 -4.031882 7e-06 -1e-06 1e-06 -10.634538 -5.686971 -3.565589 10.573279 -17.922955 -3.113903 3e-06 -13.821213 -1e-06 -0.501775 -31.181507 -4.027018 -11.930986 -60.033291 8.069481 -13.982716 -7.150198 -2.875044 13.772732 -8.401494 -3.218242 0.347738 -34.211555 0.771652 -0.963027 -17.73337 2.621019 -0.0 -2e-06 -0.0 -17.346424 -20.095221 -4.201784 21.757568 -1.638376 3.86643 -0.0 -6.338825 1e-06 -1.697588 -22.591751 -6.194009 -1e-06 -2e-06 -2e-06 154.422714 -84.458611 36.561489 35.32251 -66.807457 -57.131256 119.530746 0.358444 0.963433 11.002628 37.305092 50.090115 22.182121 -20.375904 49.933338 -16.70182 -16.743534 28.476538 -2e-06 -12.690602 -1e-06 17.011839 -17.421448 2.273846 -0.105921 -1.513857 -4.275883 -5.03904 -5.612871 -2.953557 3e-06 -11.020528 -2e-06 -6.1113 -15.895338 -3.840472 -0.0 -1e-06 0.0 -10.283373 -5.680289 -4.341841 11.028296 -11.302407 -2.372632 -1.384268 -14.238585 -6.320124 -0.625437 -26.924196 -3.8276 -3.803466 -50.236115 -3.972117 -13.708528 -7.363478 -3.720942 18.141151 -14.052743 -3.242674 6e-06 -18.787271 -1e-06 -0.429711 -8.456045 2.555506 1e-06 3e-06 1e-06 -15.923538 -20.094486 -5.473588 30.419222 -7.19083 1.735927 4e-06 -8.162927 -0.0 -1.861901 -22.861479 -6.167942 0.0 -2e-06 -1e-06 121.096535 -3.291298 -1.406742 54.130817 -0.071048 0.423427 -86.916 -0.573388 -6.702302 -6.68215 1.729659 2.153541 -0.999999 -0.0 -0.0 -60.29538 -14.442913 -7.076956 54.205544 0.032646 0.419721 -85.141205 11.920988 -4.407253 -6.887853 0.647063 1.652908 -1.000002 0.0 0.0 
0.0 0.0 0.0 0.0 -0.0 0.0 0.331079 90.407616 1.444831 93.839333 -22.653423 85.555435 17.304247 -0.626731 -0.492988 -0.9356 -0.92784 -0.2683 30.264923 -0.715487 -3.664004 -0.715594 5.972726 2.357255 -2.803477 0.421571 1.517179 -47.761559 7.6215 -5.345443 6e-06 -0.0 1e-06 -0.032369 -0.006526 0.018422 -0.019474 -0.005726 0.050756 -0.027944 -0.004786 -0.012829 -68.035446 -84.522171 78.352341 46.488087 -63.480721 -72.564301 117.47184 0.213391 0.250462 22.820141 36.763088 59.237488 17.636621 -26.322737 52.411209 -19.466665 -14.395597 29.410395 -0.0 -8.77482 -1e-06 16.959124 -18.015869 5.703101 -0.609778 -1.795653 -3.88933 -4.807088 -11.046813 -2.937851 1e-06 -20.976019 -1e-06 -5.019974 -25.03356 -4.031878 8e-06 -2e-06 -0.0 -10.634533 -5.686972 -3.565588 10.573271 -17.922955 -3.113902 0.0 -13.821213 -1e-06 -0.501779 -31.181505 -4.027017 -11.951108 -60.067623 8.098734 -13.982712 -7.150199 -2.875042 13.772726 -8.401492 -3.218243 0.347731 -34.211559 0.771655 -0.963029 -17.733372 2.621019 -1e-06 -2e-06 -0.0 -17.346418 -20.095222 -4.201783 21.757557 -1.638373 3.866427 -1e-06 -6.338825 0.0 -1.69759 -22.591751 -6.194009 -1e-06 -4e-06 -3e-06 154.39859 -84.473625 36.595242 34.924618 -66.787315 -56.877522 119.648811 0.32063 1.026415 10.880636 37.384747 50.081287 22.182106 -20.3759 49.933323 -16.701818 -16.743532 28.476536 -3e-06 -12.690601 1e-06 17.057121 -17.432943 2.251189 -0.105919 -1.513856 -4.275882 -5.039037 -5.612871 -2.953556 3e-06 -11.020523 -3e-06 -6.111294 -15.895332 -3.84047 -1e-06 1e-06 -1e-06 -10.283367 -5.680287 -4.341839 11.02829 -11.302406 -2.372633 -1.384265 -14.23858 -6.320119 -0.625435 -26.924191 -3.827602 -3.812784 -50.273331 -3.995672 -13.708525 -7.363474 -3.720939 18.141151 -14.052741 -3.242677 8e-06 -18.78727 -3e-06 -0.42971 -8.456043 2.555505 1e-06 2e-06 -0.0 -15.92353 -20.094482 -5.473584 30.41921 -7.190827 1.735921 2e-06 -8.162925 -0.0 -1.8619 -22.861469 -6.167942 1e-06 -1e-06 -1e-06 121.084572 -3.217712 -1.369762 54.073227 -0.075762 0.406094 -86.923775 -0.642736 -6.719448 -6.649838 1.737093 2.154748 -0.999998 0.0 -0.0 -60.330959 -14.47002 -7.082664 54.160671 0.029857 0.423879 -85.080116 11.885115 -4.3278 -6.861367 0.644581 1.651718 -1.000002 -0.0 -0.0 
0.0 0.0 0.0 0.0 -0.0 0.0 0.342533 90.418709 1.469736 93.873932 -22.748194 85.542511 17.302748 -0.611066 -0.469176 -0.936758 -0.92545 -0.276864 30.259626 -0.69649 -3.65767 -0.766734 5.950392 2.358551 -2.803682 0.432603 1.52781 -47.747757 7.664328 -5.314835 4e-06 0.0 1e-06 -0.035779 -0.011307 0.027897 -0.023368 -0.012049 0.059779 -0.033314 -0.007612 -0.003278 -67.563416 -84.564003 77.842491 46.395496 -63.530464 -72.446716 117.576218 0.293644 0.249079 22.82761 36.717087 59.39349 17.636625 -26.322718 52.411171 -19.466656 -14.395594 29.410378 -0.0 -8.774819 -2e-06 16.990467 -17.995798 5.655215 -0.609776 -1.795653 -3.889326 -4.807087 -11.046807 -2.93785 3e-06 -20.976011 -0.0 -5.019971 -25.033552 -4.031878 6e-06 0.0 2e-06 -10.634531 -5.686968 -3.565587 10.573273 -17.922945 -3.113899 -1e-06 -13.821205 2e-06 -0.501778 -31.181488 -4.027012 -11.928703 -60.035976 8.049416 -13.982712 -7.150194 -2.87504 13.772729 -8.401489 -3.21824 0.347734 -34.211536 0.771656 -0.963028 -17.733362 2.621021 0.0 -2e-06 0.0 -17.346413 -20.095209 -4.201781 21.757553 -1.638375 3.866428 2e-06 -6.338821 1e-06 -1.697587 -22.591738 -6.194005 -1e-06 -4e-06 -3e-06 153.92099 -84.490639 37.070339 34.525547 -66.758705 -56.623745 119.772835 0.297488 1.099712 10.780322 37.444103 50.027817 22.182121 -20.375881 49.933308 -16.701815 -16.743525 28.476524 -2e-06 -12.690602 -2e-06 17.120672 -17.437822 2.216066 -0.105921 -1.513856 -4.27588 -5.039037 -5.61287 -2.953557 1e-06 -11.02052 -2e-06 -6.111294 -15.895332 -3.84047 -2e-06 2e-06 -2e-06 -10.283373 -5.680287 -4.341838 11.028292 -11.302404 -2.372633 -1.384267 -14.238581 -6.320121 -0.625436 -26.924191 -3.827604 -3.831919 -50.306282 -4.022059 -13.708525 -7.363475 -3.72094 18.141148 -14.052736 -3.242674 7e-06 -18.787266 -3e-06 -0.429709 -8.456039 2.555502 1e-06 0.0 2e-06 -15.923534 -20.094482 -5.473586 30.419207 -7.190825 1.735929 3e-06 -8.162921 -1e-06 -1.861899 -22.861467 -6.167944 1e-06 -1e-06 -2e-06 121.024002 -3.139688 -1.321621 54.033432 -0.078833 0.385263 -86.93 -0.724676 -6.700317 -6.590981 1.738485 2.154695 -0.999999 -0.0 -0.0 -60.406219 -14.508783 -7.106298 54.133316 0.027802 0.420964 -85.110519 11.903462 -4.286277 -6.820823 0.643502 1.650786 -1.000002 -0.0 0.0 
0.0 0.0 0.0 0.0 -0.0 0.0 0.350602 90.412285 1.489807 93.898384 -22.847269 85.545753 17.302504 -0.587453 -0.45375 -0.919674 -0.930822 -0.282834 30.246048 -0.691546 -3.637507 -0.831471 5.974586 2.361394 -2.806696 0.442831 1.547262 -47.696487 7.672941 -5.269392 5e-06 1e-06 1e-06 -0.039491 -0.012132 0.029481 -0.031323 -0.01313 0.060665 -0.043537 -0.007623 -0.001528 -66.962173 -84.594887 77.188293 46.276081 -63.568573 -72.304054 117.670799 0.381799 0.222954 22.866552 36.701836 59.539402 17.636637 -26.322737 52.411201 -19.466665 -14.395602 29.410393 -0.0 -8.774824 -3e-06 17.026352 -17.972334 5.597238 -0.609776 -1.795654 -3.889328 -4.80709 -11.046811 -2.93785 4e-06 -20.976021 -1e-06 -5.019971 -25.033562 -4.03188 8e-06 -1e-06 1e-06 -10.634536 -5.686972 -3.565588 10.573277 -17.922951 -3.113901 3e-06 -13.821211 0.0 -0.501776 -31.181505 -4.027017 -11.871059 -59.989246 7.96563 -13.982712 -7.150198 -2.875042 13.772735 -8.401493 -3.218242 0.347733 -34.211555 0.771656 -0.963028 -17.733372 2.62102 0.0 -2e-06 0.0 -17.346422 -20.095221 -4.201782 21.757561 -1.638375 3.866428 1e-06 -6.338824 1e-06 -1.697591 -22.591751 -6.194007 0.0 -3e-06 -3e-06 153.22757 -84.517563 37.759193 34.163059 -66.744904 -56.404976 119.916649 0.278254 1.144871 10.734383 37.4963 50.000576 22.18211 -20.375891 49.933323 -16.701817 -16.743526 28.476536 -2e-06 -12.690601 -0.0 17.182783 -17.429508 2.190618 -0.105919 -1.513857 -4.275882 -5.039041 -5.612873 -2.953557 1e-06 -11.020525 -3e-06 -6.111295 -15.895336 -3.840472 -1e-06 -1e-06 0.0 -10.283372 -5.680288 -4.341839 11.028296 -11.302407 -2.372633 -1.384267 -14.238581 -6.320122 -0.625435 -26.924191 -3.827602 -3.867371 -50.365894 -4.019156 -13.708524 -7.363477 -3.72094 18.141151 -14.052741 -3.242676 7e-06 -18.787271 -4e-06 -0.42971 -8.456042 2.555504 1e-06 1e-06 -1e-06 -15.923534 -20.094486 -5.473587 30.419218 -7.190828 1.735924 2e-06 -8.162922 -0.0 -1.861899 -22.861469 -6.167944 -1e-06 -3e-06 -3e-06 120.929344 -3.067568 -1.267117 54.04171 -0.080114 0.370926 -86.953445 -0.834246 -6.691546 -6.535837 1.730425 2.154157 -0.999998 -0.0 0.0 -60.505005 -14.548302 -7.130176 54.154396 0.029991 0.408986 -85.144379 11.949084 -4.271215 -6.769462 0.640704 1.650205 -1.000001 0.0 0.0 
